# xmcd CD database file
#
# Track frame offsets:
#	150
#	13778
#	35849
#	52697
#	67233
#	86063
#	103033
#	124796
#	147129
#	172450
#	196512
#	215610
#
# Disc length: 3075 seconds
#
# Revision: 3
# Processed by: cddbd v1.5.2PL0 Copyright (c) Steve Scherf et al.
# Submitted via: CDex 1.51
#
DISCID=b10c010c
DTITLE=Twenty Eight - Road to October
DYEAR=2008
DGENRE=Jazz
TTITLE0=Last Night
TTITLE1=One Summer Day
TTITLE2=Daylight
TTITLE3=Miles Away
TTITLE4=Almost Dangerous
TTITLE5=Forever
TTITLE6=Twenty to Life
TTITLE7=In These Times
TTITLE8=Grounded
TTITLE9=Mas Cerveza Por Favor
TTITLE10=She (Walked Out The Door)
TTITLE11=October
EXTD=YEAR: 2008
EXTT0=
EXTT1=
EXTT2=
EXTT3=
EXTT4=
EXTT5=
EXTT6=
EXTT7=
EXTT8=
EXTT9=
EXTT10=
EXTT11=
PLAYORDER=
